<svg xmlns="http://www.w3.org/2000/svg" xmlns:xlink="http://www.w3.org/1999/xlink" width="40" zoomAndPan="magnify" viewBox="0 0 30 30.000001" height="40" preserveAspectRatio="xMidYMid meet" version="1.0"><defs><clipPath id="e9a08108e3"><path d="M 0.484375 0 L 29.515625 0 L 29.515625 29.03125 L 0.484375 29.03125 Z M 0.484375 0 " clip-rule="nonzero"/></clipPath><clipPath id="0ed06a1f87"><path d="M 15 0 C 6.984375 0 0.484375 6.5 0.484375 14.515625 C 0.484375 22.53125 6.984375 29.03125 15 29.03125 C 23.015625 29.03125 29.515625 22.53125 29.515625 14.515625 C 29.515625 6.5 23.015625 0 15 0 Z M 15 0 " clip-rule="nonzero"/></clipPath><clipPath id="de4fe78a58"><path d="M 9.300781 9.042969 L 13.65625 9.042969 L 13.65625 17.75 L 9.300781 17.75 Z M 9.300781 9.042969 " clip-rule="nonzero"/></clipPath><clipPath id="5d488aa2a1"><path d="M 14.222656 16.640625 L 22.148438 16.640625 L 22.148438 20.269531 L 14.222656 20.269531 Z M 14.222656 16.640625 " clip-rule="nonzero"/></clipPath><clipPath id="dcc84634ce"><path d="M 9.257812 16.9375 L 13.613281 16.9375 L 13.613281 20.566406 L 9.257812 20.566406 Z M 9.257812 16.9375 " clip-rule="nonzero"/></clipPath><clipPath id="d7895eac48"><path d="M 9.300781 6.972656 L 13.621094 6.972656 L 13.621094 13.453125 L 9.300781 13.453125 Z M 9.300781 6.972656 " clip-rule="nonzero"/></clipPath><clipPath id="501fc8f3b1"><path d="M 10.742188 7.082031 C 10.960938 7.019531 11.214844 6.972656 11.460938 6.972656 C 11.707031 6.972656 11.945312 7.011719 12.164062 7.078125 C 12.171875 7.078125 12.175781 7.078125 12.179688 7.082031 C 13.003906 7.34375 13.609375 8.039062 13.621094 8.890625 L 13.621094 13.441406 L 9.300781 13.441406 L 9.300781 8.894531 C 9.3125 8.035156 9.910156 7.339844 10.742188 7.082031 Z M 10.742188 7.082031 " clip-rule="nonzero"/></clipPath></defs><g clip-path="url(#e9a08108e3)"><g clip-path="url(#0ed06a1f87)"><path fill="#ffffff" d="M 0.484375 0 L 29.515625 0 L 29.515625 29.03125 L 0.484375 29.03125 Z M 0.484375 0 " fill-opacity="1" fill-rule="nonzero"/></g></g><g clip-path="url(#de4fe78a58)"><path fill="#4b8eb9" d="M 9.300781 13.433594 C 9.300781 13.71875 9.328125 14 9.382812 14.277344 C 9.441406 14.554688 9.519531 14.824219 9.628906 15.085938 C 9.738281 15.347656 9.871094 15.59375 10.027344 15.828125 C 10.183594 16.066406 10.363281 16.28125 10.5625 16.484375 C 10.765625 16.683594 10.980469 16.863281 11.214844 17.019531 C 11.453125 17.175781 11.699219 17.308594 11.960938 17.417969 C 12.222656 17.523438 12.492188 17.605469 12.769531 17.664062 C 13.046875 17.71875 13.328125 17.746094 13.609375 17.746094 L 13.609375 9.125 C 13.328125 9.125 13.046875 9.152344 12.769531 9.207031 C 12.492188 9.261719 12.222656 9.34375 11.960938 9.453125 C 11.699219 9.5625 11.453125 9.695312 11.214844 9.851562 C 10.980469 10.007812 10.761719 10.1875 10.5625 10.386719 C 10.363281 10.585938 10.183594 10.804688 10.027344 11.039062 C 9.871094 11.277344 9.738281 11.523438 9.628906 11.785156 C 9.519531 12.046875 9.4375 12.316406 9.382812 12.59375 C 9.328125 12.871094 9.300781 13.152344 9.300781 13.433594 Z M 9.300781 13.433594 " fill-opacity="1" fill-rule="nonzero"/></g><g clip-path="url(#5d488aa2a1)"><path fill="#a43a94" d="M 18.183594 16.640625 C 18.445312 16.640625 18.699219 16.664062 18.957031 16.714844 C 19.210938 16.765625 19.457031 16.84375 19.699219 16.941406 C 19.9375 17.042969 20.167969 17.164062 20.382812 17.308594 C 20.597656 17.453125 20.796875 17.617188 20.980469 17.800781 C 21.164062 17.984375 21.328125 18.183594 21.472656 18.398438 C 21.617188 18.617188 21.742188 18.84375 21.839844 19.082031 C 21.941406 19.324219 22.015625 19.570312 22.066406 19.824219 C 22.117188 20.082031 22.140625 20.339844 22.140625 20.597656 L 14.226562 20.597656 C 14.226562 20.339844 14.25 20.082031 14.300781 19.824219 C 14.351562 19.570312 14.425781 19.324219 14.527344 19.082031 C 14.625 18.84375 14.746094 18.617188 14.890625 18.398438 C 15.035156 18.183594 15.199219 17.984375 15.382812 17.800781 C 15.566406 17.617188 15.769531 17.453125 15.984375 17.308594 C 16.199219 17.164062 16.429688 17.039062 16.667969 16.941406 C 16.910156 16.84375 17.15625 16.765625 17.410156 16.714844 C 17.667969 16.664062 17.921875 16.640625 18.183594 16.640625 Z M 18.183594 16.640625 " fill-opacity="1" fill-rule="nonzero"/></g><g clip-path="url(#dcc84634ce)"><path fill="#ffde59" d="M 13.617188 21.253906 C 13.617188 20.96875 13.585938 20.691406 13.53125 20.414062 C 13.476562 20.136719 13.394531 19.867188 13.289062 19.605469 C 13.179688 19.34375 13.046875 19.09375 12.890625 18.859375 C 12.730469 18.625 12.554688 18.40625 12.351562 18.207031 C 12.152344 18.007812 11.933594 17.828125 11.699219 17.671875 C 11.464844 17.511719 11.214844 17.378906 10.957031 17.273438 C 10.695312 17.164062 10.425781 17.082031 10.148438 17.027344 C 9.871094 16.972656 9.589844 16.945312 9.304688 16.945312 L 9.304688 25.5625 C 9.589844 25.5625 9.871094 25.535156 10.148438 25.480469 C 10.425781 25.425781 10.695312 25.34375 10.957031 25.234375 C 11.214844 25.128906 11.464844 24.996094 11.699219 24.835938 C 11.9375 24.679688 12.152344 24.5 12.355469 24.300781 C 12.554688 24.101562 12.730469 23.882812 12.890625 23.648438 C 13.046875 23.414062 13.179688 23.164062 13.289062 22.902344 C 13.394531 22.640625 13.476562 22.371094 13.53125 22.09375 C 13.589844 21.816406 13.617188 21.535156 13.617188 21.253906 Z M 13.617188 21.253906 " fill-opacity="1" fill-rule="nonzero"/></g><g clip-path="url(#d7895eac48)"><g clip-path="url(#501fc8f3b1)"><path fill="#4b8eb9" d="M 9.300781 6.972656 L 13.621094 6.972656 L 13.621094 13.433594 L 9.300781 13.433594 Z M 9.300781 6.972656 " fill-opacity="1" fill-rule="nonzero"/></g></g></svg>